<?xml version="1.0" encoding="UTF-8" standalone="no"?>
<!-- Generator: Adobe Illustrator 22.1.0, SVG Export Plug-In . SVG Version: 6.00 Build 0)  -->

<svg
   version="1.1"
   id="Layer_1"
   x="0px"
   y="0px"
   viewBox="0 0 234.40916 127.99099"
   xml:space="preserve"
   sodipodi:docname="infinite-backlog.svg"
   inkscape:version="1.4.2 (f4327f4, 2025-05-13)"
   width="234.40915"
   height="127.99099"
   xmlns:inkscape="http://www.inkscape.org/namespaces/inkscape"
   xmlns:sodipodi="http://sodipodi.sourceforge.net/DTD/sodipodi-0.dtd"
   xmlns="http://www.w3.org/2000/svg"
   xmlns:svg="http://www.w3.org/2000/svg"><defs
   id="defs24" /><sodipodi:namedview
   id="namedview24"
   pagecolor="#ffffff"
   bordercolor="#000000"
   borderopacity="0.25"
   inkscape:showpageshadow="2"
   inkscape:pageopacity="0.0"
   inkscape:pagecheckerboard="0"
   inkscape:deskcolor="#d1d1d1"
   inkscape:zoom="3.3448198"
   inkscape:cx="217.64999"
   inkscape:cy="63.830046"
   inkscape:window-width="1600"
   inkscape:window-height="829"
   inkscape:window-x="1912"
   inkscape:window-y="235"
   inkscape:window-maximized="1"
   inkscape:current-layer="Layer_1" />
<style
   type="text/css"
   id="style1">
	.st0{fill:#FFFFFF;}
	.st1{fill:#F4BE30;}
	.st2{fill:#539342;}
	.st3{fill:#D33E3B;}
	.st4{fill:#2DA3DC;}
	.st5{fill:#2EA2DC;}
</style>
<g
   id="g10"
   transform="translate(-0.02520712,0.06643517)">
	<g
   id="g1">
		<path
   class="st0"
   d="m 64.9,127.9 c 2.4,0.1 5.6,-0.1 8.9,-0.7 13.3,-2.4 24.9,-8 34.6,-17.4 1.4,-1.3 1.6,-2.2 0.4,-3.8 -3.5,-4.8 -6.1,-10.1 -8.2,-15.7 -0.8,-2.2 -1.5,-2.5 -3.1,-0.5 -10,12.5 -23,18 -39,16.2 C 35.1,103.4 18.1,81.5 21.7,58.2 25.2,35.7 44.4,20 66.7,21.4 89,22.9 106.2,41.3 106.5,64 c 0.6,39.8 34.8,68.9 74.2,63 32.5,-4.9 56.9,-36.4 53.4,-69.2 C 230.2,22 199.7,-1.9 166.8,0.1 c -15.8,0.9 -29.5,7.1 -41,18 -1.4,1.3 -1.5,2.3 -0.4,3.9 3.5,4.8 6.1,10.1 8.1,15.7 0.9,2.4 1.6,2.4 3.1,0.4 11.5,-14.6 29.5,-20.3 47,-14.6 19.7,6.4 31.3,25.3 29.1,44.5 -2.5,22 -19.6,37.8 -40.5,38.5 C 147.8,107.3 128.1,88.4 127.8,63.8 127.4,30.5 102.5,3.3 69.8,0.2 34.9,-3 3.4,23 0.3,58 c -3.5,38.7 26.9,69.9 64.6,69.9 z"
   id="path1" />
	</g>
	<g
   id="_x36_Lje1A.tif_3_">
		<g
   id="g6">
			<path
   class="st0"
   d="m 39.3,71.5 c 4.5,0 9,0 13.4,0 0.2,0 0.5,-0.2 0.7,-0.3 2.4,-2.4 4.7,-4.9 7.7,-7.9 -2.5,-2.2 -4.7,-4.2 -7,-6.2 -0.4,-0.3 -0.9,-0.7 -1.3,-0.7 -4.5,-0.1 -8.9,0 -13.5,0 0,5 0,9.7 0,15.1 z M 87.2,56.3 c -4.4,0 -8.7,0 -13,0 -0.5,0 -1.1,0.2 -1.4,0.5 -2.2,2.2 -4.4,4.6 -6.7,7 2.2,2.4 4.3,4.7 6.4,7 0.3,0.4 0.9,0.7 1.3,0.7 4.4,0.1 8.9,0 13.3,0 0.1,-5.2 0.1,-10.1 0.1,-15.2 z M 55.7,87.6 c 5.2,0 10.1,0 15.2,0 0,-4.4 0,-8.6 0,-12.8 0,-0.5 -0.2,-1.1 -0.5,-1.4 -2.2,-2.3 -4.5,-4.6 -6.9,-7 -2.6,2.6 -5,5 -7.3,7.4 -0.3,0.3 -0.4,1 -0.4,1.4 -0.2,4.1 -0.1,8.2 -0.1,12.4 z m 7.5,-26.5 c 2.4,-2.3 4.8,-4.6 7.1,-6.8 0.2,-0.2 0.4,-0.6 0.4,-0.9 0,-4.4 0,-8.7 0,-13.1 -5.2,0 -10,0 -15.1,0 0,4.3 0,8.3 0,12.4 0,0.6 0.2,1.3 0.6,1.6 2.3,2.3 4.7,4.5 7,6.8 z"
   id="path2" />
			<path
   class="st0"
   d="m 39.3,71.5 c 0,-5.4 0,-10.2 0,-15.2 4.5,0 9,0 13.5,0 0.4,0 0.9,0.4 1.3,0.7 2.3,2 4.5,4 7,6.2 -2.9,3 -5.3,5.5 -7.7,7.9 -0.2,0.2 -0.4,0.3 -0.7,0.3 -4.4,0.1 -8.8,0.1 -13.4,0.1 z"
   id="path3" />
			<path
   class="st0"
   d="m 87.2,56.3 c 0,5.1 0,10 0,15.3 -4.4,0 -8.9,0 -13.3,0 -0.4,0 -1,-0.4 -1.3,-0.7 -2.1,-2.2 -4.2,-4.5 -6.4,-7 2.3,-2.4 4.5,-4.7 6.7,-7 0.3,-0.3 0.9,-0.5 1.4,-0.5 4.2,-0.1 8.5,-0.1 12.9,-0.1 z"
   id="path4" />
			<path
   class="st0"
   d="m 55.7,87.6 c 0,-4.3 0,-8.3 0,-12.4 0,-0.5 0.1,-1.1 0.4,-1.4 2.3,-2.4 4.7,-4.7 7.3,-7.4 2.4,2.4 4.7,4.7 6.9,7 0.3,0.3 0.5,0.9 0.5,1.4 0,4.2 0,8.4 0,12.8 -5,0 -9.9,0 -15.1,0 z"
   id="path5" />
			<path
   class="st0"
   d="m 63.2,61.1 c -2.4,-2.3 -4.7,-4.5 -7,-6.8 -0.4,-0.4 -0.5,-1.1 -0.6,-1.6 0,-4 0,-8.1 0,-12.4 5,0 9.9,0 15.1,0 0,4.4 0,8.7 0,13.1 0,0.3 -0.2,0.7 -0.4,0.9 -2.3,2.2 -4.6,4.5 -7.1,6.8 z"
   id="path6" />
		</g>
	</g>
	<g
   id="g9">
		<circle
   class="st1"
   cx="170.7"
   cy="47.299999"
   r="8.1000004"
   id="circle6" />
		<circle
   class="st2"
   cx="155"
   cy="62.799999"
   r="8.1000004"
   id="circle7" />
		<circle
   class="st3"
   cx="186.5"
   cy="62.799999"
   r="8.1000004"
   id="circle8" />
		<circle
   class="st4"
   cx="170.7"
   cy="79.199997"
   r="8.1000004"
   id="circle9" />
	</g>
</g>


</svg>
