<?xml version="1.0" encoding="UTF-8" standalone="no"?>
<!-- Created with Inkscape (http://www.inkscape.org/) -->

<svg
   width="509.51175"
   height="511.11673"
   viewBox="0 0 509.51175 511.11673"
   version="1.1"
   id="svg1"
   xml:space="preserve"
   inkscape:version="1.4.2 (f4327f4, 2025-05-13)"
   sodipodi:docname="serializd.svg"
   xmlns:inkscape="http://www.inkscape.org/namespaces/inkscape"
   xmlns:sodipodi="http://sodipodi.sourceforge.net/DTD/sodipodi-0.dtd"
   xmlns="http://www.w3.org/2000/svg"
   xmlns:svg="http://www.w3.org/2000/svg"><sodipodi:namedview
     id="namedview1"
     pagecolor="#ffffff"
     bordercolor="#000000"
     borderopacity="0.25"
     inkscape:showpageshadow="2"
     inkscape:pageopacity="0.0"
     inkscape:pagecheckerboard="0"
     inkscape:deskcolor="#d1d1d1"
     inkscape:document-units="px"
     inkscape:zoom="0.39404297"
     inkscape:cx="307.07311"
     inkscape:cy="361.63569"
     inkscape:window-width="1920"
     inkscape:window-height="1009"
     inkscape:window-x="-8"
     inkscape:window-y="-8"
     inkscape:window-maximized="1"
     inkscape:current-layer="g6173" /><defs
     id="defs1" /><g
     inkscape:label="Слой 1"
     inkscape:groupmode="layer"
     id="layer1"
     transform="translate(-1.1355074,0.86886367)"><g
       id="g6173"><path
         style="fill:#9af8f6"
         d="M 235.58595,508.83332 C -23.326985,478.81878 -87.76114,140.45006 143.72269,26.423774 349.54869,-74.963757 572.84186,126.87304 494.66384,343.64278 457.1738,447.59407 341.815,521.14795 235.58595,508.83332 Z"
         id="path6175"
         sodipodi:nodetypes="ssss" /><path
         style="fill:#43b9a4"
         d="m 213.75466,505.44223 c -19.73133,-4.23418 -39.8066,-9.96029 -54.33517,-16.00809 -13.70103,-5.70331 -30.18422,-13.40836 -31.68426,-14.26021 -0.91188,-0.51785 -8.14555,-6.43985 -16.44738,-12.05688 C 58.041795,427.09068 14.34783,358.44786 4.3172795,291.05778 -1.6459014,250.99425 2.4166298,192.53758 17.535261,159.15337 25.142813,142.35474 29.68176,132.70427 31.222954,130.79336 32.128497,129.67059 37.676413,119.76092 43.267756,111.0414 78.107979,56.709244 135.60921,20.8912 206.92329,4.6098873 c 42.23682,-9.6428495 86.38167,-5.8308647 124.10343,5.7707947 4.71128,1.448998 32.07592,13.215081 35.22435,14.771594 5.50757,2.722812 38.34737,20.687791 59.60813,40.548379 44.767,41.818775 75.60899,101.043935 82.80016,157.861165 7.30645,57.72803 -7.8686,120.17576 -29.63091,154.98232 -11.44485,18.30485 -8.11959,13.15945 -12.67407,19.37136 -1.4087,1.92133 -8.7487,11.97341 -16.43214,20.94599 -2.91908,3.40886 -7.7913,8.85017 -13.99864,14.90194 -5.1026,4.97472 -8.07623,7.81515 -9.57406,9.13735 -1.14137,1.00752 -4.82781,4.12315 -10.16657,8.67033 -4.77868,4.07015 -9.35233,7.09562 -10.15367,7.71699 -1.51873,1.17764 -4.3139,3.2606 -9.464,6.685 -4.51764,3.00387 -8.19372,5.5095 -9.12129,6.10895 -1.10442,0.71376 -3.11489,1.87653 -5.11141,3.11725 -2.57439,1.59985 -12.9021,7.46003 -25.60515,13.15187 -11.26189,5.0461 -24.46273,9.86388 -34.71333,12.88988 -36.22999,10.69517 -73.94328,11.56516 -108.25946,4.20118 z m -4.70699,-80.80179 c 12.54568,-5.79021 16.28285,-11.25255 32.40081,-47.35787 21.75081,-48.7233 71.91073,-160.7878 96.77438,-216.20793 24.37752,-54.33655 26.73839,-64.10667 19.10601,-79.067369 -16.71686,-32.767756 -53.89886,-30.143699 -70.70553,4.989923 -5.15711,10.780729 -53.22032,117.670206 -62.68276,139.402426 -5.58015,12.81582 -8.36733,19.03772 -16.91778,37.76601 -53.49392,117.16923 -56.59583,126.40703 -48.90218,145.63535 6.44085,16.09729 32.03982,23.55648 50.92705,14.83946 z"
         id="path6174"
         sodipodi:nodetypes="ssssssscsssssssssssssssssssssssssss" /><path
         style="fill:#127665"
         d="m 184.07631,436.73543 c -7.64573,-3.47072 -21.8273,-14.36086 -18.70128,-14.36086 0.6581,0 6.2299,0.79275 10.05141,2.72123 6.83868,3.45105 13.33378,2.99905 19.1886,2.78906 4.04782,-0.14517 5.4523,-0.37066 8.08002,-1.32492 3.66631,-1.33141 7.29481,-1.52288 9.79153,-3.79709 17.41471,-15.86267 22.76098,-31.358 44.54694,-80.33957 33.74525,-75.86975 58.3638,-130.76589 64.77093,-144.76195 41.29021,-90.19645 49.06769,-104.732727 24.82974,-129.688995 -3.96958,-4.087225 -7.53451,-5.212183 -13.5591,-7.616581 -5.04251,-2.01245 -3.58449,-3.134007 1.72475,-3.263405 24.43549,-0.595543 45.52096,22.69474 44.2385,48.864341 -0.78041,15.92485 -1.94773,18.93622 -35.4823,91.53486 -3.80629,8.24018 -6.92052,15.2925 -6.92052,15.67181 0,0.37932 -3.10462,7.41684 -6.89915,15.63894 -3.79453,8.2221 -15.65303,34.69987 -26.35222,58.83949 -46.19441,104.22432 -59.19767,132.0141 -64.35836,137.54273 -13.33045,14.28087 -37.66627,19.3965 -54.94949,11.55091 z"
         id="path6173"
         sodipodi:nodetypes="ssssssssssssssssss" /></g></g></svg>
